# xmcd CD database file
#
# Track frame offsets:
#	150
#	9345
#	30280
#	58220
#	86312
#	109370
#	136885
#	166320
#	190660
#	218930
#	252760
#	277487
#	299722
#
# Disc length: 4305 seconds
#
# Revision: 16
# Processed by: cddbd v1.5.1PL2 Copyright (c) Steve Scherf et al.
# Submitted via: CDex 1.51
#
DISCID=be10cf0d
DTITLE=CHAGE&ASKA - RED HILL
DYEAR=1993
DGENRE=JPop
TTITLE0=夜明けは沈黙のなかへ
TTITLE1=なぜに君は帰らない
TTITLE2=夢の番人
TTITLE3=螢
TTITLE4=今夜ちょっとさ
TTITLE5=THE TIME
TTITLE6=君はなにも知らないまま
TTITLE7=Mr.Jの悲劇は岩より重い
TTITLE8=You are free
TTITLE9=RED HILL
TTITLE10=TAO
TTITLE11=YAH YAH YAH(RED HILL)
TTITLE12=Sons and Daughters〜それより僕が伝えたいのは
EXTD=YEAR: 1993
EXTT0=
EXTT1=
EXTT2=
EXTT3=
EXTT4=
EXTT5=
EXTT6=
EXTT7=
EXTT8=
EXTT9=
EXTT10=
EXTT11=
EXTT12=
PLAYORDER=
